<svg width="192" height="192" viewBox="0 0 158 143" fill="none" xmlns="http://www.w3.org/2000/svg">
<g clip-path="url(#clip0_1032_18705)">
<path d="M79.1655 0.0759076C103.915 0.0759076 128.674 0.143416 153.424 0.00839909C156.769 -0.00847805 158.008 0.565345 158 4.27832C157.864 49.1209 157.873 93.9634 157.983 138.814C157.983 142.105 157.159 143.017 153.789 143.008C104 142.899 54.2119 142.89 4.42349 143.008C0.832001 143.017 -6.91089e-05 141.987 0.00842141 138.528C0.118798 93.82 0.118798 49.1124 -6.91092e-05 4.41333C-0.00855962 0.869133 1.00181 -0.0169166 4.48292 -3.94765e-05C29.3771 0.143416 54.2713 0.0759076 79.1655 0.0759076ZM138.107 63.2892C135.653 64.7913 133.955 65.7364 132.359 66.825C116.396 77.7107 100.417 88.5796 84.523 99.5666C82.3664 101.06 80.906 101.221 78.6221 99.651C66.9052 91.5669 55.0354 83.6853 43.2082 75.7446C37.1884 71.7025 31.1516 67.6857 24.5036 63.2386C24.5036 70.3692 24.5545 76.5378 24.4696 82.6979C24.4441 84.3266 25.1403 85.2295 26.4139 86.0987C43.9808 98.1236 61.5307 110.191 79.0636 122.266C80.541 123.287 81.6617 123.937 83.5381 122.621C101.08 110.3 118.697 98.0899 136.315 85.8708C137.597 84.9848 138.158 83.9722 138.141 82.3773C138.056 76.3521 138.107 70.3186 138.107 63.2808V63.2892ZM24.512 23.3157C24.512 29.7712 24.6734 35.4841 24.4441 41.1717C24.3337 43.9227 25.3271 45.4585 27.5601 46.9775C44.728 58.6058 61.8448 70.3101 78.8683 82.1494C81.1013 83.7021 82.4853 83.2633 84.4041 81.93C100.952 70.3945 117.483 58.8337 134.184 47.5175C137.283 45.4163 138.463 43.1886 138.183 39.5853C137.886 35.8132 138.158 31.999 138.081 28.2017C138.056 26.8515 138.803 24.9528 137.563 24.2608C136.001 23.3917 134.863 25.2819 133.666 26.092C117.313 37.1634 100.961 48.2433 84.7183 59.475C82.3579 61.1036 80.7787 61.188 78.4013 59.5341C67.1599 51.7368 55.7911 44.1168 44.4308 36.4799C38.0459 32.1847 31.5931 27.9907 24.5036 23.3073L24.512 23.3157ZM115.743 120.672C115.802 120.984 115.861 121.304 115.921 121.617C122.722 121.617 129.523 121.617 136.324 121.617C137.572 121.617 138.09 120.882 138.09 119.752C138.107 114.79 138.09 109.836 138.09 103.862C130.032 109.921 122.883 115.296 115.743 120.672ZM24.512 104.031C24.512 109.752 24.512 114.503 24.512 119.262C24.512 120.368 24.3677 121.625 26.0998 121.617C32.8837 121.617 39.6761 121.617 46.46 121.617C46.528 121.313 46.5874 121.001 46.6553 120.697C39.5233 115.33 32.3997 109.971 24.5036 104.031H24.512Z" fill="black"/>
<path d="M24.4612 23.3158C24.4612 29.7713 24.6225 35.4842 24.3933 41.1718C24.2829 43.9228 25.2763 45.4586 27.5093 46.9775C44.6771 58.6059 61.794 70.3102 78.8175 82.1495C81.0505 83.7022 82.4344 83.2634 84.3533 81.9301C100.901 70.3945 117.432 58.8337 134.133 47.5176C137.232 45.4164 138.412 43.1886 138.132 39.5853C137.835 35.8133 138.107 31.9991 138.03 28.2017C138.005 26.8515 138.752 24.9528 137.512 24.2609C135.95 23.3917 134.812 25.282 133.615 26.0921C117.263 37.1635 100.91 48.2433 84.6674 59.475C82.3071 61.1037 80.7278 61.1881 78.3505 59.5341C67.1091 51.7369 55.7403 44.1168 44.3799 36.4799C37.9951 32.1847 31.5423 27.9907 24.4527 23.3073L24.4612 23.3158Z" fill="white"/>
<path d="M138.158 63.2977C135.704 64.7998 134.006 65.7449 132.41 66.8335C116.447 77.7192 100.468 88.5881 84.574 99.5751C82.4174 101.069 80.957 101.229 78.6731 99.6595C66.9562 91.5753 55.0864 83.6937 43.2591 75.753C37.2394 71.711 31.2026 67.6942 24.5545 63.2471C24.5545 70.3777 24.6055 76.5463 24.5206 82.7064C24.4951 84.3351 25.1913 85.238 26.4649 86.1072C44.0318 98.1321 61.5817 110.199 79.1146 122.275C80.5919 123.296 81.7127 123.946 83.5891 122.629C101.13 110.309 118.748 98.0984 136.366 85.8793C137.648 84.9933 138.209 83.9806 138.192 82.3857C138.107 76.3606 138.158 70.327 138.158 63.2893V63.2977Z" fill="white"/>
<path d="M24.5122 104.031C24.5122 109.752 24.5122 114.503 24.5122 119.262C24.5122 120.368 24.3678 121.625 26.0999 121.617C32.8838 121.617 39.6762 121.617 46.4601 121.617C46.5281 121.313 46.5875 121.001 46.6554 120.697C39.5234 115.33 32.3998 109.971 24.5037 104.031H24.5122Z" fill="white"/>
<path d="M115.743 120.756C115.802 121.068 115.862 121.389 115.921 121.701C122.722 121.701 129.523 121.701 136.324 121.701C137.572 121.701 138.09 120.967 138.09 119.836C138.107 114.874 138.09 109.921 138.09 103.946C130.032 110.005 122.883 115.381 115.743 120.756Z" fill="white"/>
</g>
<defs>
<clipPath id="clip0_1032_18705">
<rect width="158" height="143" fill="white"/>
</clipPath>
</defs>
</svg>
