<svg width="145" height="43" viewBox="0 0 145 43" fill="none" xmlns="http://www.w3.org/2000/svg">
<rect x="0.5" y="0.518555" width="144" height="41.963" rx="4.5" fill="black"/>
<path d="M114.856 32.2405H116.86V18.8129H114.856V32.2405ZM132.908 23.6501L130.61 29.4715H130.542L128.157 23.6501H125.998L129.575 31.7862L127.535 36.3124H129.625L135.136 23.6501H132.908ZM121.541 30.7155C120.886 30.7155 119.969 30.3869 119.969 29.5751C119.969 28.5387 121.11 28.1414 122.094 28.1414C122.975 28.1414 123.39 28.3311 123.925 28.5904C123.77 29.8344 122.699 30.7155 121.541 30.7155ZM121.784 23.3563C120.332 23.3563 118.83 23.9957 118.208 25.4122L119.987 26.1548C120.367 25.4122 121.075 25.1706 121.818 25.1706C122.854 25.1706 123.908 25.7919 123.925 26.8979V27.0359C123.562 26.8286 122.785 26.5178 121.835 26.5178C119.917 26.5178 117.965 27.5712 117.965 29.5406C117.965 31.3372 119.538 32.4948 121.299 32.4948C122.646 32.4948 123.39 31.8902 123.855 31.1816H123.925V32.2187H125.861V27.0703C125.861 24.6864 124.08 23.3563 121.784 23.3563ZM109.397 25.2846H106.547V20.6821H109.397C110.896 20.6821 111.746 21.9223 111.746 22.9833C111.746 24.0239 110.896 25.2846 109.397 25.2846ZM109.346 18.8129H104.543V32.2405H106.547V27.1534H109.346C111.567 27.1534 113.751 25.5456 113.751 22.9833C113.751 20.4215 111.567 18.8129 109.346 18.8129ZM83.1583 30.7179C81.7737 30.7179 80.6149 29.5583 80.6149 27.9669C80.6149 26.3571 81.7737 25.181 83.1583 25.181C84.5253 25.181 85.5981 26.3571 85.5981 27.9669C85.5981 29.5583 84.5253 30.7179 83.1583 30.7179ZM85.4596 24.402H85.3904C84.9406 23.8657 84.0751 23.3812 82.9855 23.3812C80.701 23.3812 78.6074 25.3887 78.6074 27.9669C78.6074 30.5275 80.701 32.5175 82.9855 32.5175C84.0751 32.5175 84.9406 32.0328 85.3904 31.4795H85.4596V32.1365C85.4596 33.8848 84.5253 34.8187 83.0199 34.8187C81.7918 34.8187 81.0304 33.9364 80.7186 33.1925L78.9712 33.9192C79.4725 35.1301 80.8046 36.6187 83.0199 36.6187C85.3736 36.6187 87.3635 35.2341 87.3635 31.8596V23.658H85.4596V24.402ZM88.7481 32.2405H90.7545V18.8129H88.7481V32.2405ZM93.7137 27.8108C93.662 26.0457 95.0814 25.1462 96.1018 25.1462C96.8981 25.1462 97.5723 25.5443 97.7981 26.115L93.7137 27.8108ZM99.9429 26.2878C99.5623 25.2674 98.4031 23.3812 96.0325 23.3812C93.6788 23.3812 91.7236 25.2326 91.7236 27.9493C91.7236 30.5103 93.662 32.5175 96.257 32.5175C98.3506 32.5175 99.5623 31.2374 100.064 30.493L98.5071 29.4546C97.9878 30.2161 97.2786 30.7179 96.257 30.7179C95.2366 30.7179 94.5096 30.2506 94.043 29.3335L100.151 26.8072L99.9429 26.2878ZM51.279 24.7828V26.7208H55.9163C55.7778 27.8108 55.4145 28.6067 54.8607 29.1605C54.1856 29.8352 53.13 30.5795 51.279 30.5795C48.4237 30.5795 46.1917 28.2782 46.1917 25.4231C46.1917 22.568 48.4237 20.2663 51.279 20.2663C52.8191 20.2663 53.9435 20.8721 54.7742 21.6508L56.1416 20.2835C54.9819 19.1763 53.4421 18.3284 51.279 18.3284C47.3677 18.3284 44.0801 21.5124 44.0801 25.4231C44.0801 29.3335 47.3677 32.5175 51.279 32.5175C53.3897 32.5175 54.9819 31.8252 56.2276 30.5275C57.5082 29.247 57.9063 27.4475 57.9063 25.9937C57.9063 25.5443 57.8714 25.129 57.8022 24.7828H51.279ZM63.1785 30.7179C61.7939 30.7179 60.5999 29.5759 60.5999 27.9493C60.5999 26.3054 61.7939 25.181 63.1785 25.181C64.5626 25.181 65.7566 26.3054 65.7566 27.9493C65.7566 29.5759 64.5626 30.7179 63.1785 30.7179ZM63.1785 23.3812C60.6514 23.3812 58.5926 25.3018 58.5926 27.9493C58.5926 30.5795 60.6514 32.5175 63.1785 32.5175C65.7046 32.5175 67.7638 30.5795 67.7638 27.9493C67.7638 25.3018 65.7046 23.3812 63.1785 23.3812ZM73.1811 30.7179C71.7975 30.7179 70.603 29.5759 70.603 27.9493C70.603 26.3054 71.7975 25.181 73.1811 25.181C74.5657 25.181 75.7594 26.3054 75.7594 27.9493C75.7594 29.5759 74.5657 30.7179 73.1811 30.7179ZM73.1811 23.3812C70.655 23.3812 68.5963 25.3018 68.5963 27.9493C68.5963 30.5795 70.655 32.5175 73.1811 32.5175C75.7082 32.5175 77.767 30.5795 77.767 27.9493C77.767 25.3018 75.7082 23.3812 73.1811 23.3812Z" fill="white"/>
<path d="M47.7717 14.2334C46.8088 14.2334 45.9805 13.8946 45.3127 13.2269C44.6445 12.5587 44.3062 11.7221 44.3062 10.7494C44.3062 9.77659 44.6447 8.94149 45.3127 8.27186C45.9805 7.60405 46.8088 7.26534 47.7717 7.26534C48.2623 7.26534 48.7202 7.35007 49.1577 7.52651C49.5955 7.70297 49.9536 7.94794 50.2356 8.2685L50.3021 8.34424L49.5509 9.09525L49.4758 9.00294C49.2888 8.77315 49.0509 8.59463 48.7495 8.46486C48.4492 8.33541 48.1203 8.27564 47.7717 8.27564C47.0935 8.27564 46.5307 8.50597 46.0608 8.97421C46.0606 8.97431 46.0604 8.9743 46.0603 8.97442C45.6011 9.45211 45.3701 10.0337 45.3701 10.7494C45.3701 11.4656 45.6013 12.0473 46.0612 12.5252C46.5311 12.9932 47.0938 13.2248 47.7717 13.2248C48.3926 13.2248 48.9061 13.0515 49.3098 12.7083H49.31C49.6859 12.3889 49.9114 11.9574 49.9912 11.4072H47.6643V10.4171H50.9969L51.0111 10.5077C51.0384 10.6818 51.0577 10.8498 51.0577 11.0112C51.0577 11.9351 50.776 12.6892 50.2234 13.2441C49.5996 13.9054 48.7792 14.2334 47.7717 14.2334L47.7717 14.2334ZM76.7092 14.2334C75.7448 14.2334 74.9262 13.8944 74.2669 13.2269C74.2669 13.2268 74.2668 13.2268 74.2667 13.2267C74.2667 13.2266 74.2666 13.2265 74.2665 13.2264C73.6064 12.5661 73.2789 11.7293 73.2789 10.7494C73.2789 9.76938 73.6064 8.9326 74.2665 8.27227C74.2666 8.2722 74.2666 8.27217 74.2667 8.27206L74.2669 8.27184C74.9262 7.6042 75.7448 7.26532 76.7092 7.26532C77.6717 7.26532 78.4906 7.60428 79.1498 8.28191C79.8101 8.94214 80.1379 9.77733 80.1379 10.7493C80.1379 11.7293 79.8103 12.5661 79.1502 13.2264L79.15 13.2266C78.4904 13.8947 77.6639 14.2334 76.7092 14.2334L76.7092 14.2334ZM52.0114 14.0891V7.40967H52.1188H56.0006V8.41997H53.0569V10.2543H55.7119V11.2444H53.0569V13.0804H56.0006V14.0891H52.0114ZM58.442 14.0891V8.41997H56.6362V7.40967H61.2933V8.41997H61.1859H59.4875V14.0891H58.442ZM64.2697 14.0891V7.40967H65.3152V7.51707V14.0891H64.2697ZM67.9471 14.0891V8.41997H66.1413V7.40967H70.7984V8.41997H70.691H68.9927V14.0891H67.9471ZM81.0659 14.0891V7.40967H82.2449L85.2454 12.2132L85.2196 11.3013V7.40967H86.2651V14.0891H85.2305L82.0857 9.0428L82.1115 9.95409V9.95556V14.0891H81.0659ZM76.7092 13.2248C77.3875 13.2248 77.9411 12.9934 78.3925 12.526L78.3931 12.5251L78.3938 12.5245C78.8516 12.0666 79.0756 11.4772 79.0756 10.7493C79.0756 10.0233 78.8514 9.43185 78.3938 8.97417L78.3931 8.97353L78.3925 8.97288C77.9412 8.50552 77.3876 8.27557 76.7092 8.27557C76.0297 8.27557 75.4761 8.50512 75.0163 8.97246L75.0159 8.97289C74.5666 9.44168 74.3429 10.0235 74.3429 10.7493C74.3429 11.4769 74.5665 12.0569 75.0159 12.5257L75.0163 12.5262C75.4762 12.9936 76.0298 13.2247 76.7092 13.2247V13.2248Z" fill="white"/>
<path d="M22.2491 20.8805L10.814 33.0176C10.8144 33.0201 10.8153 33.0222 10.8157 33.0247C11.1664 34.3425 12.3701 35.313 13.7987 35.313C14.3698 35.313 14.906 35.1586 15.3658 34.8875L15.4023 34.8662L28.274 27.4387L22.2491 20.8805Z" fill="#EA4335"/>
<path d="M33.8179 18.8139L33.807 18.8063L28.2499 15.5849L21.9893 21.1559L28.2717 27.4375L33.7995 24.248C34.7686 23.7249 35.4265 22.7032 35.4265 21.525C35.4265 20.3554 34.7774 19.3388 33.8179 18.8139Z" fill="#FBBC04"/>
<path d="M10.8134 9.982C10.7446 10.2355 10.7085 10.501 10.7085 10.7767V32.2234C10.7085 32.4986 10.7442 32.765 10.8138 33.0176L22.6425 21.191L10.8134 9.982Z" fill="#4285F4"/>
<path d="M22.3334 21.5L28.2521 15.5829L15.395 8.12864C14.9277 7.84873 14.3823 7.68719 13.7987 7.68719C12.37 7.68719 11.1647 8.65934 10.8139 9.97884C10.8135 9.98013 10.8135 9.98099 10.8135 9.98217L22.3334 21.5Z" fill="#34A853"/>
<rect x="0.5" y="0.518555" width="144" height="41.963" rx="4.5" stroke="#A6A6A6"/>
</svg>
