<svg width="227" height="226" viewBox="0 0 227 226" fill="none" xmlns="http://www.w3.org/2000/svg">
<g id="Group">
<g id="Group_2" opacity="0.5">
<g id="Group_3">
<path id="Vector" d="M14.8003 106.371L141.714 33.5078L14.8003 106.371Z" fill="white"/>
<path id="Vector_2" d="M14.8003 106.371L141.714 33.5078" stroke="#D97DD9" stroke-width="29" stroke-linecap="round"/>
</g>
</g>
<g id="Group_4" opacity="0.5">
<g id="Group_5">
<path id="Vector_3" d="M44.9888 154.161L171.902 81.2979L44.9888 154.161Z" fill="white"/>
<path id="Vector_4" d="M44.9888 154.161L171.902 81.2979" stroke="#D97DD9" stroke-width="29" stroke-linecap="round"/>
</g>
</g>
<g id="Group_6" opacity="0.5">
<g id="Group_7">
<path id="Vector_5" d="M204.411 62.9877L214.302 57.2341L204.411 62.9877Z" fill="white"/>
<path id="Vector_6" d="M204.411 62.9877L214.302 57.2341" stroke="#D97DD9" stroke-width="25" stroke-linecap="round"/>
</g>
</g>
<g id="Group_8" opacity="0.5">
<g id="Group_9">
<path id="Vector_7" d="M89.7627 193.478L186.148 137.223L89.7627 193.478Z" fill="white"/>
<path id="Vector_8" d="M89.7627 193.478L186.149 137.223" stroke="#D97DD9" stroke-width="29" stroke-linecap="round"/>
</g>
</g>
<g id="Group_10">
<g id="Group_11">
<path id="Vector_9" d="M209.725 142.718C211.268 142.88 212.39 144.264 212.227 145.806C212.065 147.349 210.68 148.47 209.137 148.308C207.593 148.146 206.472 146.762 206.634 145.22C206.797 143.677 208.182 142.556 209.725 142.718Z" stroke="#D97DD9" stroke-width="3"/>
</g>
<g id="Group_12">
<path id="Vector_10" d="M45.6552 199.926C48.1931 200.192 50.0369 202.468 49.7698 205.005C49.5027 207.541 47.2252 209.385 44.6873 209.119C42.1494 208.852 40.3056 206.577 40.5727 204.04C40.8398 201.503 43.1172 199.66 45.6552 199.926Z" stroke="#D97DD9" stroke-width="2"/>
</g>
<g id="Group_13">
<path id="Vector_11" d="M110.497 10.5222C113.035 10.7884 114.879 13.0641 114.612 15.6007C114.345 18.1374 112.068 19.9808 109.53 19.7145C106.992 19.4483 105.148 17.1726 105.415 14.636C105.682 12.0993 107.96 10.256 110.497 10.5222Z" stroke="#D97DD9" stroke-width="2"/>
</g>
</g>
<g id="Group_14">
<g id="Group_15">
<path id="Vector_12" d="M3.3583 70.7002C4.5243 70.7002 5.47099 71.6462 5.47099 72.8113C5.47099 73.9764 4.5243 74.9223 3.3583 74.9223C2.1923 74.9223 1.24561 73.9764 1.24561 72.8113C1.24561 71.6462 2.1923 70.7002 3.3583 70.7002Z" stroke="#D97DD9" stroke-width="2"/>
</g>
<g id="Group_16">
<path id="Vector_13" d="M167.449 208.367C168.615 208.367 169.562 209.313 169.562 210.478C169.562 211.643 168.615 212.589 167.449 212.589C166.283 212.589 165.336 211.643 165.336 210.478C165.336 209.313 166.283 208.367 167.449 208.367Z" stroke="#D97DD9" stroke-width="2"/>
</g>
</g>
<g id="Group_17">
<g id="Group_18">
<path id="Vector_14" d="M191.449 9.83521L194.07 1.77653" stroke="#D97DD9" stroke-width="3"/>
</g>
<g id="Group_19">
<path id="Vector_15" d="M188.86 4.55762L196.925 7.17603" stroke="#D97DD9" stroke-width="3"/>
</g>
</g>
<g id="Group_20">
<g id="Group_21">
<path id="Vector_16" d="M11.8159 148.165L14.1533 140.02" stroke="#D97DD9" stroke-width="3"/>
</g>
<g id="Group_22">
<path id="Vector_17" d="M9.04395 142.981L17.1954 145.316" stroke="#D97DD9" stroke-width="3"/>
</g>
</g>
<g id="Group_23">
<g id="Group_24">
<path id="Vector_18" d="M188.073 184.826L189.98 176.57" stroke="#D97DD9" stroke-width="3"/>
</g>
<g id="Group_25">
<path id="Vector_19" d="M185.033 179.794L193.296 181.7" stroke="#D97DD9" stroke-width="3"/>
</g>
</g>
</g>
</svg>
