<svg width="89" height="88" viewBox="0 0 89 88" fill="none" xmlns="http://www.w3.org/2000/svg">
<g clip-path="url(#clip0_592_10145)">
<path d="M50.927 52.9933C51.224 53.0141 51.419 53.0382 51.6139 53.0624C53.4666 53.4606 55.3393 53.848 57.1919 54.2462C57.7166 54.3514 58.2211 54.4674 58.7475 54.6236C59.0571 54.7155 59.3684 54.8585 59.6597 55.0123C60.3368 55.3985 60.4868 55.9147 60.1533 56.6411C60.0287 56.8905 59.8933 57.1198 59.7269 57.3399C58.8799 58.6046 57.9275 59.7706 56.8913 60.878C56.7433 61.0362 56.5953 61.1944 56.418 61.3945C56.5636 61.4714 56.6783 61.5391 56.813 61.5959C60.6139 62.8082 64.2827 64.3518 68.0083 65.7607C68.174 65.8267 68.3397 65.8927 68.5163 65.9788C68.7565 66.1343 68.8763 66.3552 68.8245 66.643C68.7929 66.92 68.6156 67.12 68.3529 67.2105C68.1505 67.2684 67.9262 67.286 67.702 67.3037C67.2937 67.3173 66.8544 67.3217 66.4353 67.3152C66.2311 67.322 66.027 67.3288 65.8429 67.3247C64.8606 67.2858 63.8783 67.247 62.8851 67.188C62.24 67.1482 61.5639 67.0991 60.9263 66.9773C57.647 66.3915 54.3878 65.7948 51.1711 64.9412C49.5828 64.5035 47.9595 64.2408 46.3546 63.916C46.1998 63.8701 46.0358 63.8551 45.881 63.8092C45.3839 63.6111 45.2648 63.1041 45.6504 62.7132C45.7691 62.5968 45.8988 62.5006 46.0393 62.4244C46.9719 61.8926 47.9046 61.3609 48.8482 60.8492C49.0088 60.7621 49.1493 60.6859 49.4103 60.5444C48.6437 60.2326 47.9901 59.9376 47.3072 59.6844C46.4277 59.356 45.5591 59.0477 44.6796 58.7193C44.4829 58.6441 44.3315 58.7002 44.1709 58.7873C41.2357 60.5608 38.0887 61.7998 34.7858 62.6556C31.3717 63.5458 27.9144 63.4462 24.4769 62.7124C22.4184 62.2699 20.737 61.1814 19.3574 59.6433C18.9647 59.2068 18.6616 58.6957 18.3292 58.2265C16.4873 55.6921 15.6158 52.8394 15.4921 49.737C15.4124 47.3383 15.6824 45.0097 16.2075 42.6725C16.9614 39.2241 18.2015 35.9537 19.7203 32.766C22.2412 27.4501 25.3372 22.5239 29.2793 18.1519C31.3682 15.8241 33.6389 13.7354 36.2276 11.9939C39.3257 9.89813 42.6777 8.36621 46.3847 7.68087C50.0717 7.00641 53.5075 7.6892 56.6796 9.65811C58.5468 10.8018 60.1782 12.2293 61.4935 13.9841C63.281 16.418 64.2001 19.1669 64.3622 22.1965C64.4644 24.3492 64.2387 26.472 63.869 28.569C62.388 37.1918 58.6424 44.7046 52.694 51.1258C52.2299 51.6113 51.7766 52.1169 51.3125 52.6024C51.2121 52.6568 51.1335 52.7514 50.927 52.9933Z" fill="#FFD6FF"/>
<path d="M18.4954 26.0519C18.4345 26.3708 18.4012 26.5967 18.3368 26.8134C17.8774 28.3615 17.4288 29.9297 16.9493 31.4887C16.1832 33.9565 15.3443 36.3858 14.6092 38.8628C13.7162 41.8151 13.255 44.845 13.2765 47.9508C13.2763 51.0163 13.8759 53.9905 15.236 56.7861C16.2461 58.8883 17.5866 60.7853 19.3452 62.3515C19.798 62.7555 20.3312 63.1158 20.8334 63.467C21.1791 63.7212 21.5138 63.9553 21.8395 64.2204C22.1123 64.4361 22.1409 64.6804 22.0255 64.8988C21.8901 65.1282 21.6366 65.1877 21.3052 65.0557C21.1705 64.9988 21.0357 64.942 20.9102 64.8542C19.0188 63.9054 17.5313 62.5039 16.2504 60.8604C13.2289 56.9653 11.9458 52.4912 11.9577 47.6268C11.9647 44.7653 12.3726 41.9722 13.1301 39.2492C14.0974 35.7631 15.3433 32.3596 16.662 28.9946C16.9737 28.2281 17.3691 27.52 17.7536 26.7919C17.8874 26.5116 18.083 26.2496 18.4954 26.0519Z" fill="#FFD6FF"/>
<path d="M64.5376 12.4112C65.7477 14.6906 66.4015 17.1418 66.7306 19.6651C67.153 22.8393 67.0741 25.9995 66.4121 29.1383C66.1375 30.4043 65.8118 31.6721 65.4952 32.9089C65.451 33.1147 65.3666 33.3423 65.2805 33.5189C65.1284 33.8612 64.9184 34.001 64.6816 33.9476C64.4339 33.8741 64.3142 33.6533 64.3734 33.2834C64.3884 33.1194 64.4343 32.9646 64.4803 32.8098C64.7808 31.3998 65.1014 29.9789 65.3509 28.5707C66.0627 24.4697 65.8759 20.3885 64.7101 16.3704C64.007 13.9719 62.771 11.8364 61.1553 9.95877C60.252 8.91584 59.0928 8.16754 57.9445 7.43933C56.587 6.56479 55.1434 5.86684 53.6044 5.37643C53.222 5.24609 52.8596 5.10485 52.4864 4.94355C52.3207 4.87753 52.1642 4.78054 52.0077 4.68356C51.8403 4.5665 51.6327 4.47122 51.7063 4.22352C51.7706 4.00679 51.9948 3.98911 52.1588 4.00409C52.5889 4.03066 52.988 4.04804 53.3997 4.13654C55.5494 4.55554 57.5102 5.44067 59.2787 6.68985C60.4505 7.50926 61.6733 8.32696 62.5398 9.49374C63.2155 10.4523 63.851 11.4326 64.5376 12.4112Z" fill="#FFD6FF"/>
</g>
<defs>
<clipPath id="clip0_592_10145">
<rect width="66" height="64.1731" fill="white" transform="translate(0 31.4624) rotate(-28.4702)"/>
</clipPath>
</defs>
</svg>
