<svg width="56" height="68" viewBox="0 0 56 68" fill="none" xmlns="http://www.w3.org/2000/svg">
<g clip-path="url(#clip0_592_10247)">
<path d="M47.4449 30.7682C48.6654 31.9296 49.7825 33.0071 50.8995 34.0846C51.1519 34.3236 51.3875 34.5833 51.5313 34.8715C51.8357 35.4273 51.7612 35.9847 51.3828 36.536C50.8701 37.2529 50.2253 37.794 49.4731 38.2137C48.5787 38.724 47.6804 39.1969 46.7575 39.6155C44.498 40.6663 42.1893 41.6086 39.8313 42.4423C35.2033 44.0437 30.6128 45.6413 26.0133 47.3345C23.8221 48.1318 21.7294 49.1463 19.5836 50.0148C17.4209 50.9039 15.2169 51.7595 13.0543 52.6486C11.856 53.1528 10.6958 52.9327 9.58711 52.4799C8.29991 51.9509 7.72692 50.4565 8.23521 49.1525C8.62482 48.1642 9.25899 47.3398 10.1741 46.8463C11.8246 45.9537 13.5244 45.1698 15.2242 44.3858C15.7671 44.1396 16.3671 44.077 16.9827 44.1643C17.9061 44.2954 18.1367 44.6883 17.7482 45.5059C17.7186 45.5848 17.6682 45.6469 17.5753 45.8462C17.8881 45.7567 18.0924 45.7164 18.2928 45.6386C21.4936 44.5274 24.6374 43.2325 27.7073 41.7748C32.5106 39.4918 37.4202 37.5009 42.3465 35.4892C43.073 35.1859 43.828 34.9744 44.5752 34.6879C44.7755 34.6102 44.9591 34.5531 45.2138 34.4507C44.5226 33.8216 43.8936 33.2428 43.2853 32.6809C43.1158 32.5091 42.9283 32.5286 42.6904 32.6103C42.1229 32.8023 41.5554 32.9942 40.9878 33.1861C39.7649 33.636 38.6797 33.4081 37.7323 32.5025C37.4592 32.2467 37.1486 31.9948 36.9259 31.6769C36.2902 30.8525 36.4677 29.8294 37.3128 29.2105C37.5596 29.0331 37.8311 28.91 38.1025 28.7869C42.9243 26.862 47.7085 24.941 52.534 23.0536C53.9366 22.5091 55.3884 22.0733 56.8324 21.5624C57.0328 21.4846 57.2164 21.4276 57.471 21.3252C57.1979 21.0694 56.9909 20.9014 56.7967 20.6753C56.3462 20.1727 56.3121 19.6645 56.6194 19.1586C56.8634 18.773 57.1724 18.646 57.6212 18.7697C57.8955 18.8548 58.158 18.8274 58.4244 18.8375C58.7283 18.8437 59.115 18.917 59.3635 19.1185C60.4078 19.8624 61.3938 20.5934 62.367 21.3826C62.719 21.6681 63.0414 22.0325 63.3262 22.4008C63.9166 23.1541 63.8113 23.9612 63.0334 24.4973C62.6276 24.786 62.1597 25.0244 61.6632 25.171C59.9489 25.6343 58.271 26.2643 56.6255 27.0237C53.8399 28.3 51.0219 29.4471 48.1546 30.4857C47.9542 30.5634 47.7538 30.6412 47.4449 30.7682Z" fill="black"/>
<path d="M25.0827 26.981C24.4279 26.5186 23.8145 26.0899 23.1973 25.6236C22.2151 24.9301 21.2122 24.2198 20.2468 23.5056C20.023 23.3584 19.8366 23.2072 19.6463 23.0186C18.906 22.2809 18.971 21.2696 19.7747 20.6171C19.8626 20.5511 19.9504 20.485 20.0422 20.4565C22.9554 18.7688 25.6499 16.8006 28.3196 14.7782C31.2906 12.5537 34.2822 10.3461 37.257 8.15913C37.8385 7.7383 38.4408 7.33427 39.0223 6.91344C39.8171 6.35663 40.6174 6.21622 41.4714 6.77148C42.3669 7.36032 43.292 7.87026 44.1706 8.47981C48.0825 11.2746 52.1455 13.883 56.2046 16.4539C57.2203 17.1059 58.2399 17.7955 59.2221 18.489C59.5702 18.737 59.8847 19.0264 60.1282 19.3611C60.7639 20.1855 60.4907 21.1996 59.5924 21.6725C59.3041 21.8163 58.9913 21.9058 58.6784 21.9953C57.8355 22.2729 57.0094 22.5297 56.1872 22.824C53.925 23.6667 51.6834 24.5262 49.4173 25.3314C47.1511 26.1366 44.8642 26.9249 42.5774 27.7133C41.918 27.9338 41.2755 28.1335 40.633 28.3333C40.4494 28.3904 40.2491 28.4681 39.9569 28.5745C40.164 28.7424 40.2882 28.8431 40.4125 28.9439C42.1143 30.3583 43.8329 31.752 45.5347 33.1664C45.659 33.2672 45.7871 33.4054 45.8946 33.5269C46.5471 34.3306 46.3528 35.3744 45.4584 35.8847C45.1366 36.07 44.7487 36.1673 44.3777 36.244C42.6219 36.6736 40.8623 37.0658 39.1105 37.533C38.2805 37.7524 37.4416 38.0674 36.644 38.416C32.3808 40.2446 28.1552 42.0694 23.9166 43.9523C19.5488 45.8677 15.1888 47.8581 10.8417 49.7903C10.516 49.9381 10.1695 50.069 9.79453 50.1081C8.87778 50.2228 8.24876 49.644 8.11731 48.748C8.03005 48.0937 8.15882 47.5117 8.54112 46.9979C9.23463 46.0158 9.92422 44.9961 10.7174 44.0604C13.5333 40.7149 16.4114 37.4198 19.2274 34.0743C21.1327 31.8095 22.9966 29.5111 24.8812 27.2295C24.973 27.2009 25.0194 27.1013 25.0827 26.981Z" fill="#EA552B"/>
</g>
<defs>
<clipPath id="clip0_592_10247">
<rect width="36.2568" height="57.8508" fill="white" transform="translate(36.438) rotate(39.0401)"/>
</clipPath>
</defs>
</svg>
