<svg width="187" height="186" viewBox="0 0 187 186" fill="none" xmlns="http://www.w3.org/2000/svg">
<g id="Arrow 07" clip-path="url(#clip0_56_528)">
<path id="Arrow 07_2" d="M47.0954 50.3186C47.5961 49.4996 47.655 49.1317 47.9013 48.8522C67.5138 33.964 88.4332 27.4733 110.493 31.6755C116.068 32.7211 121.117 35.3657 125.463 39.2609C134.852 47.5125 137.411 61.5116 132.012 74.6608C129.233 81.5272 125.525 87.6921 119.593 92.0173C116.674 91.1683 113.805 90.2113 110.971 89.6664C106.341 88.8024 101.799 89.6944 97.6527 93.1468C94.5342 95.633 93.008 98.8701 93.6927 101.303C94.5912 104.496 97.2138 105.733 100.029 105.346C103.942 104.817 107.871 103.768 111.664 102.522C114.113 101.699 116.535 100.203 118.856 98.9233C128.575 105.748 127.627 119.413 116.713 131.148C115.011 130.873 113.216 130.554 111.463 130.387C104.919 129.94 98.8221 131.945 93.8028 137.492C91.8835 139.62 90.3307 142.185 91.2801 145.27C92.0156 147.595 94.6381 148.832 98.0746 148.342C103.518 147.48 108.406 144.64 113.071 141.301C114.678 140.08 116.284 138.859 117.796 137.594C133.169 147.479 136.796 169.895 122.406 183.421C123.674 183.887 124.653 184.481 125.419 184.314C126.329 184.084 127.263 183.073 127.908 182.191C133.731 173.726 136.813 164.76 134.313 155.009C132.497 147.69 128.931 141.657 124.056 136.457C123.366 135.735 122.675 135.014 122.036 134.185C121.942 134.141 121.95 133.881 121.873 133.317C122.424 132.39 122.984 131.203 123.731 130.105C132.515 116.573 132.704 107.431 124.15 95.2209C125.135 94.1028 126.222 92.7688 127.352 91.5869C133.704 84.4268 137.809 76.2068 139.342 66.6424C141.869 51.0844 135.831 37.4232 123.364 30.3581C116.594 26.5067 109.189 24.7299 101.259 24.552C82.0723 24.2105 64.121 29.9905 47.7311 43.6284C46.8558 44.2708 46.0233 45.0653 45.1481 45.7077C45.0035 45.7714 44.7653 45.791 44.0507 45.8498C45.0311 41.8279 46.94 38.5075 48.7553 35.1431C50.426 31.8423 52.3349 28.522 54.2519 24.9417C51.6641 24.1173 50.0152 25.1863 48.5884 26.7556C47.009 28.6487 45.2423 30.4534 44.1312 32.5672C41.1967 38.3055 38.3051 44.1959 35.7881 50.2628C33.8815 55.035 35.4253 57.3455 39.67 56.841C48.6867 55.6849 57.7543 54.4209 66.8219 53.1569C68.302 52.9315 69.6964 52.402 71.5673 51.8333C70.4733 48.8117 68.5678 48.9683 66.8067 49.0612C60.3246 49.6978 53.995 50.0107 47.0954 50.3186ZM95.6161 143.358C99.9693 136.31 106.278 133.614 112.238 136.028C107.088 139.667 102.32 143.222 95.6161 143.358ZM98.2935 100.043C102.606 94.2953 107.777 93.0405 113.185 96.3816C108.255 99.0687 103.766 101.305 98.2935 100.043Z" fill="white"/>
</g>
<defs>
<clipPath id="clip0_56_528">
<rect width="138.981" height="140.481" fill="white" transform="matrix(0.426456 -0.904508 -0.904508 -0.426456 127.066 185.618)"/>
</clipPath>
</defs>
</svg>
