<svg width="30" height="30" viewBox="0 0 30 30" fill="none" xmlns="http://www.w3.org/2000/svg">
<g id="menu" clip-path="url(#clip0_173_39)">
<path id="Icon" fill-rule="evenodd" clip-rule="evenodd" d="M1 5.25C1 4.55964 1.55964 4 2.25 4H29.75C30.4404 4 31 4.55964 31 5.25C31 5.94036 30.4404 6.5 29.75 6.5H2.25C1.55964 6.5 1 5.94036 1 5.25ZM1 14C1 13.3096 1.55964 12.75 2.25 12.75H29.75C30.4404 12.75 31 13.3096 31 14C31 14.6904 30.4404 15.25 29.75 15.25H2.25C1.55964 15.25 1 14.6904 1 14ZM1 22.75C1 22.0596 1.55964 21.5 2.25 21.5H29.75C30.4404 21.5 31 22.0596 31 22.75C31 23.4404 30.4404 24 29.75 24H2.25C1.55964 24 1 23.4404 1 22.75Z" fill="white"/>
</g>
<defs>
<clipPath id="clip0_173_39">
<rect width="30" height="30" fill="white"/>
</clipPath>
</defs>
</svg>
